<?xml version="1.0" encoding="UTF-8" standalone="no"?>
<!DOCTYPE svg PUBLIC "-//W3C//DTD SVG 1.1//EN" "http://www.w3.org/Graphics/SVG/1.1/DTD/svg11.dtd">
<svg width="100%" height="100%" viewBox="0 0 16 16" version="1.1" xmlns="http://www.w3.org/2000/svg" xmlns:xlink="http://www.w3.org/1999/xlink" xml:space="preserve" xmlns:serif="http://www.serif.com/" style="fill-rule:evenodd;clip-rule:evenodd;stroke-linejoin:round;stroke-miterlimit:2;">
    <g transform="matrix(0.143256,0,0,0.132425,-1.49071,-0.435499)">
        <path d="M37,108.7L51.1,94.6L37,80.5L37,108.7ZM51,47.8L51,18.4L37.1,18.5C37.1,18.5 37.2,64.4 37.3,64.2C80.1,47.5 77,59.4 77,59.4L77,108.8L76.9,109L90,109L90,59.5C90,32.4 51,47.8 51,47.8ZM70,36L84.8,36C92.8,26 95.5,19 95.5,19L80.2,19C80.2,19 75.3,30 70,36Z" style="fill:rgb(103,98,166);fill-rule:nonzero;"/>
    </g>
</svg>
