<?xml version="1.0" encoding="UTF-8" standalone="no"?><svg width="16" height="16" viewBox="0 0 16 16" version="1.1" xmlns="http://www.w3.org/2000/svg" xmlns:xlink="http://www.w3.org/1999/xlink" xml:space="preserve" xmlns:serif="http://www.serif.com/" style="fill-rule:evenodd;clip-rule:evenodd;stroke-linejoin:round;stroke-miterlimit:2;"><g><path d="M8,5.092c-1.606,-0 -2.911,1.304 -2.911,2.911c-0,1.609 1.304,2.912 2.911,2.912c1.609,0 2.912,-1.303 2.912,-2.912c-0.001,-1.607 -1.305,-2.91 -2.912,-2.911Zm5.815,0.264l-0.056,-0.122l-0.087,0.102c-0.217,0.247 -0.493,0.437 -0.801,0.551l-0.087,0.031l0.034,0.088c0.264,0.635 0.401,1.318 0.401,2.004c-0,2.884 -2.339,5.224 -5.223,5.224c-2.884,0 -5.222,-2.34 -5.222,-5.225c0,-2.884 2.339,-5.222 5.223,-5.222c0.776,-0 1.54,0.172 2.241,0.505l0.081,0.038l0.034,-0.087c0.13,-0.3 0.334,-0.567 0.591,-0.771l0.102,-0.088l-0.117,-0.061c-0.898,-0.467 -1.9,-0.711 -2.914,-0.711l-0.017,-0c-3.526,-0 -6.386,2.86 -6.386,6.388c-0,3.528 2.862,6.388 6.388,6.388c3.529,0 6.388,-2.86 6.388,-6.388c0,-0.915 -0.195,-1.821 -0.576,-2.651l0.003,0.007Zm-0.308,-1.333c-0,-0.732 -0.593,-1.326 -1.326,-1.326c-0.732,0 -1.326,0.594 -1.326,1.326c0,0.734 0.594,1.328 1.326,1.328c0.734,-0 1.326,-0.595 1.326,-1.328Z" style="fill:#478aff;"/></g></svg>