<?xml version="1.0" encoding="UTF-8" standalone="no"?>
<!DOCTYPE svg PUBLIC "-//W3C//DTD SVG 1.1//EN" "http://www.w3.org/Graphics/SVG/1.1/DTD/svg11.dtd">
<svg width="100%" height="100%" viewBox="0 0 16 16" version="1.1" xmlns="http://www.w3.org/2000/svg" xmlns:xlink="http://www.w3.org/1999/xlink" xml:space="preserve" xmlns:serif="http://www.serif.com/" style="fill-rule:evenodd;clip-rule:evenodd;stroke-linejoin:round;stroke-miterlimit:2;">
    <g transform="matrix(0.0149217,0,0,0.0149217,22.4582,-78.1754)">
        <path d="M-1240.35,6140.16C-1301.17,6130.57 -1349.87,6085.58 -1365.36,6024.68C-1369.86,6006.97 -1369.55,5970.23 -1364.76,5953.51C-1353.75,5915.05 -1330.65,5885.9 -1296.07,5866.81L-1288.21,5862.47L-1288.72,5848.9C-1290.09,5812.54 -1276.31,5769.97 -1253.44,5739.87C-1232.03,5711.69 -1199.68,5688.75 -1166.69,5678.35C-1113.7,5661.64 -1059.69,5669.07 -1012.43,5699.57C-1006.81,5703.2 -994.43,5714.03 -984.918,5723.65L-967.623,5741.14L-958.989,5736.77C-923.507,5718.78 -879.038,5717.74 -843.093,5734.04C-795.7,5755.53 -764.143,5803.14 -764.143,5853.15L-764.143,5865.61L-753.465,5871.95C-707.5,5899.26 -681.713,5953.18 -688.699,6007.39C-693.28,6042.95 -707.485,6071.97 -732.595,6097.08C-752.821,6117.31 -774.183,6129.55 -803.242,6137.56L-818.357,6141.73L-1022.64,6142C-1187.2,6142.22 -1229.53,6141.86 -1240.34,6140.16L-1240.35,6140.16ZM-1021.65,6071.03C-981.891,6063 -945.677,6033.52 -927.757,5994.57C-917.447,5972.17 -915.823,5964.23 -915.918,5936.68C-915.998,5914.36 -916.369,5911.2 -920.4,5898.96C-929.044,5872.71 -940.633,5854.22 -959.246,5836.99C-985.402,5812.77 -1015.47,5801.26 -1052.5,5801.28C-1106.5,5801.32 -1152.69,5830.95 -1175.76,5880.35C-1184.28,5898.61 -1186.85,5909.37 -1187.93,5931.22C-1189.83,5969.99 -1177.21,6004.16 -1150.87,6031.53C-1116.56,6067.19 -1071.26,6081.04 -1021.65,6071.03ZM-1058.09,6053.21C-1065.68,6047.06 -1060.83,6034.11 -1050.93,6034.11C-1044.64,6034.11 -1040.19,6038.78 -1040.19,6045.37C-1040.19,6051.03 -1045.27,6056.11 -1050.93,6056.11C-1052.9,6056.11 -1056.12,6054.8 -1058.09,6053.21ZM-1016.45,5996.28C-1019.4,5995.43 -1030.74,5985.74 -1045.91,5971.14L-1070.57,5947.4L-1070.57,5911.67C-1070.57,5876.65 -1070.5,5875.88 -1067.03,5872.63C-1061.42,5867.37 -1055.4,5865.7 -1048.67,5867.51C-1037.22,5870.59 -1036.84,5871.8 -1036.3,5907.38L-1035.82,5939.04L-1017.18,5957.91C-997.765,5977.56 -994.713,5982.65 -998.312,5989.37C-999.941,5992.41 -1008.96,5998.38 -1011.09,5997.82C-1011.4,5997.74 -1013.8,5997.05 -1016.45,5996.28L-1016.45,5996.28ZM-1167.23,5944.52C-1171.29,5940.03 -1170.93,5932.15 -1166.51,5928.58C-1161.59,5924.59 -1156.02,5924.95 -1151.43,5929.53C-1146.71,5934.25 -1146.55,5938.1 -1150.83,5943.54C-1154.9,5948.72 -1162.99,5949.2 -1167.23,5944.52L-1167.23,5944.52ZM-951.028,5943.54C-952.82,5941.26 -954.285,5938.17 -954.285,5936.68C-954.285,5935.18 -952.82,5932.1 -951.028,5929.82C-944.792,5921.89 -931.762,5926.35 -931.762,5936.41C-931.762,5947.23 -944.439,5951.91 -951.028,5943.54ZM-1058.8,5836.09C-1062.86,5831.61 -1062.5,5823.73 -1058.09,5820.15C-1050.72,5814.18 -1040.19,5818.79 -1040.19,5827.99C-1040.19,5834.58 -1044.64,5839.25 -1050.93,5839.25C-1053.95,5839.25 -1057.07,5838 -1058.8,5836.09L-1058.8,5836.09ZM-684.59,5884.35C-693.225,5870.59 -711.433,5849.9 -723.703,5839.92C-728.686,5835.86 -733.044,5831.05 -733.388,5829.22C-742.303,5781.88 -760.139,5747.08 -790.316,5718.15C-824.073,5685.79 -861.937,5668.81 -909.791,5664.57L-930.509,5662.74L-926.069,5656.32C-919.733,5647.15 -901.635,5630.15 -890.944,5623.31C-871.404,5610.81 -843.842,5601.77 -818.171,5599.44L-806.645,5598.4L-805.785,5655.07L-755.086,5612.06L-704.387,5569.06L-755.086,5525.55L-805.785,5482.05L-807.358,5539.9L-822.286,5541.12C-874.869,5545.45 -926.027,5567.95 -960.645,5601.97C-974.591,5615.67 -983.419,5627.33 -992.243,5643.69C-995.716,5650.13 -999.027,5655.38 -999.6,5655.36C-1000.17,5655.34 -1005.59,5652.11 -1011.64,5648.17C-1033.78,5633.77 -1064.35,5621.28 -1092.57,5615.1C-1103.25,5612.77 -1112.6,5612.18 -1139.16,5612.18L-1172.39,5612.18L-1171.62,5606.68C-1166.46,5569.68 -1142.7,5533.08 -1111.06,5513.4C-1070.74,5488.33 -1021.7,5485.49 -980.776,5505.86L-968.767,5511.83L-956.631,5498.68C-940.583,5481.28 -926.871,5470.45 -908.715,5460.81C-891.923,5451.89 -874.63,5445.69 -856.996,5442.26C-841.372,5439.22 -809.276,5439.3 -793.043,5442.42C-739.077,5452.78 -693.318,5486.49 -668.714,5534.04C-654.849,5560.83 -649.472,5581.85 -648.531,5612.97L-647.937,5632.61L-637.857,5638.28C-606.027,5656.18 -585.001,5680.85 -573.731,5713.54C-568.76,5727.95 -568.582,5729.33 -568.55,5753.61C-568.516,5783.31 -570.471,5792.64 -581.753,5816.47C-598.291,5851.39 -628.232,5878.23 -665.253,5891.33L-677.492,5895.66L-684.59,5884.35L-684.59,5884.35Z" style="fill:rgb(0,188,242);fill-rule:nonzero;"/>
    </g>
</svg>
