<?xml version="1.0" encoding="UTF-8" standalone="no" ?>
<!DOCTYPE svg PUBLIC "-//W3C//DTD SVG 1.1//EN" "http://www.w3.org/Graphics/SVG/1.1/DTD/svg11.dtd">
<svg
  width="100%"
  height="100%"
  viewBox="0 0 16 16"
  version="1.1"
  xmlns="http://www.w3.org/2000/svg"
  xmlns:xlink="http://www.w3.org/1999/xlink"
  xml:space="preserve"
  xmlns:serif="http://www.serif.com/"
  style="fill-rule:evenodd;clip-rule:evenodd;stroke-linejoin:round;stroke-miterlimit:2;"
>
    <g transform="matrix(0.364636,0,0,0.364636,2.16581,2.16589)">
        <path
      d="M31.189,12.846L31.144,12.733L26.868,1.571C26.78,1.352 26.626,1.166 26.427,1.04C26.02,0.787 25.496,0.816 25.118,1.11C24.936,1.259 24.803,1.46 24.739,1.687L21.851,10.522L10.157,10.522L7.269,1.687C7.206,1.459 7.074,1.257 6.89,1.109C6.512,0.814 5.988,0.786 5.581,1.039C5.382,1.165 5.228,1.351 5.141,1.569L0.856,12.726L0.813,12.839C-0.452,16.144 0.622,19.887 3.447,22.018L3.462,22.03L3.501,22.057L10.017,26.936L13.24,29.376L15.203,30.858C15.674,31.216 16.33,31.216 16.8,30.858L18.764,29.376L21.987,26.936L28.542,22.028L28.558,22.015C31.376,19.883 32.448,16.147 31.189,12.845"
      style="fill:#db4b4b;fill-rule:nonzero;"
    />
    </g>
    <g transform="matrix(0.364636,0,0,0.364636,2.16581,2.16589)">
        <path
      d="M31.189,12.846L31.144,12.733C29.061,13.16 27.097,14.043 25.393,15.318L16,22.421C19.199,24.84 21.984,26.943 21.984,26.943L28.538,22.035L28.554,22.022C31.377,19.89 32.451,16.15 31.189,12.846"
      style="fill:#faba4a;fill-rule:nonzero;"
    />
    </g>
    <g transform="matrix(0.364636,0,0,0.364636,2.16581,2.16589)">
        <path
      d="M10.017,26.943L13.24,29.382L15.203,30.865C15.674,31.222 16.33,31.222 16.8,30.865L18.764,29.382L21.987,26.943C21.987,26.943 19.199,24.834 16,22.42C14.004,23.926 12.01,25.434 10.016,26.943"
      style="fill:#914c54;fill-rule:nonzero;"
    />
    </g>
    <g transform="matrix(0.364636,0,0,0.364636,2.16581,2.16589)">
        <path
      d="M6.605,15.318C4.903,14.04 2.94,13.155 0.856,12.726L0.813,12.839C-0.452,16.144 0.622,19.887 3.447,22.018L3.462,22.03L3.501,22.057L10.017,26.936L16,22.414L6.605,15.318Z"
      style="fill:#faba4a;fill-rule:nonzero;"
    />
    </g>
</svg>
