<svg
  viewBox="0 0 16 16"
  xmlns="http://www.w3.org/2000/svg"
  xml:space="preserve"
  style="fill-rule:evenodd;clip-rule:evenodd"
><path
    d="M5 5a2 2 0 0 1 2-2h2a2 2 0 0 1 2 2v1H5V5Z"
    style="fill:#a9b1d6;fill-opacity:.77;fill-rule:nonzero;stroke:#737aa2;stroke-width:1.5px"
    transform="translate(-.913 -.972) scale(1.11418)"
  /><path
    d="M3.25 6.5c0-.69.56-1.25 1.25-1.25h7c.69 0 1.25.56 1.25 1.25v6c0 .69-.56 1.25-1.25 1.25h-7c-.69 0-1.25-.56-1.25-1.25v-6Zm5.5 3.161a1 1 0 1 0-1.5 0V11a.75.75 0 0 0 1.5 0V9.661Z"
    style="fill:#737aa2"
    transform="translate(-.913 -.972) scale(1.11418)"
  /></svg>
