<?xml version="1.0" encoding="UTF-8" standalone="no"?>
<!DOCTYPE svg PUBLIC "-//W3C//DTD SVG 1.1//EN" "http://www.w3.org/Graphics/SVG/1.1/DTD/svg11.dtd">
<svg width="100%" height="100%" viewBox="0 0 16 16" version="1.1" xmlns="http://www.w3.org/2000/svg" xmlns:xlink="http://www.w3.org/1999/xlink" xml:space="preserve" xmlns:serif="http://www.serif.com/" style="fill-rule:evenodd;clip-rule:evenodd;stroke-linejoin:round;stroke-miterlimit:2;">
    <g transform="matrix(0.13638,0,0,0.151592,1.95956,0.257187)">
        <path d="M48.067,81.275L47.061,81.092C39.916,79.763 35.401,75.442 33.264,68.645C31.927,64.408 34.351,61.29 38.794,61.085C42.431,60.915 44.923,63.007 47.124,65.44C49.963,68.575 52.564,71.926 55.352,75.11C59.366,79.693 64.096,82.644 70.567,81.733C76.368,80.917 81.427,78.589 85.825,74.756C86.486,74.18 87.212,73.677 87.91,73.141L88.582,72.354L87.47,72.623C83.776,73.773 80.01,74.156 76.16,73.963C70.337,73.671 64.787,72.453 59.822,69.257C55.291,66.339 51.949,62.429 50.362,57.207C49.079,52.987 51.702,50.036 56.077,50.646C57.804,50.888 59.258,51.666 60.566,52.768C61.628,53.668 62.649,54.618 63.733,55.49C68.837,59.592 75.968,59.82 82.443,55.366C71.795,55.318 64.55,49.459 58.187,42.036C55.697,39.131 53.266,36.175 50.723,33.314C45.804,27.781 40.348,22.907 32.879,21.242C23.331,19.12 14.117,20.51 5.273,24.558C3.51,25.365 1.817,26.306 -0,27.818C0.9,27.818 1.39,27.828 1.88,27.818C6.34,27.701 9.682,29.682 12.092,33.33C13.846,35.985 14.672,38.987 15.302,42.075C16.237,46.659 15.752,51.33 16.293,55.936C17.68,67.773 23.73,76.033 34.994,80.263C39.126,81.815 43.362,82.331 48.066,81.273L48.067,81.275ZM19.596,27.275C17.817,27.723 16.395,27.005 14.93,25.522C17.44,24.897 19.654,24.654 22.033,24.559C21.838,26.105 20.926,26.939 19.598,27.275L19.596,27.275Z" style="fill:rgb(253,79,0);fill-rule:nonzero;"/>
    </g>
</svg>
