<svg
  viewBox="0 0 16 16"
  xmlns="http://www.w3.org/2000/svg"
  xml:space="preserve"
  style="fill-rule:evenodd;clip-rule:evenodd;stroke-linejoin:round;stroke-miterlimit:2"
><path
    d="m48.067 81.275-1.006-.183c-7.145-1.329-11.66-5.65-13.797-12.447-1.337-4.237 1.087-7.355 5.53-7.56 3.637-.17 6.129 1.922 8.33 4.355 2.839 3.135 5.44 6.486 8.228 9.67 4.014 4.583 8.744 7.534 15.215 6.623 5.801-.816 10.86-3.144 15.258-6.977.661-.576 1.387-1.079 2.085-1.615l.672-.787-1.112.269c-3.694 1.15-7.46 1.533-11.31 1.34-5.823-.292-11.373-1.51-16.338-4.706-4.531-2.918-7.873-6.828-9.46-12.05-1.283-4.22 1.34-7.171 5.715-6.561 1.727.242 3.181 1.02 4.489 2.122 1.062.9 2.083 1.85 3.167 2.722 5.104 4.102 12.235 4.33 18.71-.124-10.648-.048-17.893-5.907-24.256-13.33-2.49-2.905-4.921-5.861-7.464-8.722-4.919-5.533-10.375-10.407-17.844-12.072-9.548-2.122-18.762-.732-27.606 3.316-1.763.807-3.456 1.748-5.273 3.26.9 0 1.39.01 1.88 0 4.46-.117 7.802 1.864 10.212 5.512 1.754 2.655 2.58 5.657 3.21 8.745.935 4.584.45 9.255.991 13.861 1.387 11.837 7.437 20.097 18.701 24.327 4.132 1.552 8.368 2.068 13.072 1.01l.001.002Zm-28.471-54c-1.779.448-3.201-.27-4.666-1.753 2.51-.625 4.724-.868 7.103-.963-.195 1.546-1.107 2.38-2.435 2.716h-.002Z"
    style="fill:#db4b4b;fill-rule:nonzero"
    transform="matrix(.13638 0 0 .1516 1.96 .257)"
  /></svg>
