<svg
  viewBox="0 0 16 16"
  xmlns="http://www.w3.org/2000/svg"
  xml:space="preserve"
  style="fill-rule:evenodd;clip-rule:evenodd;stroke-linejoin:round;stroke-miterlimit:2"
><path
    d="m26.48 16.851-7.474 7.559a1.968 1.968 0 0 1-1.4.585H9.415l-3.708 3.713a1.002 1.002 0 0 1-.707.293A1.006 1.006 0 0 1 3.999 28c0-.265.106-.52.293-.707l2.824-2.823L15.588 16h10.537a.502.502 0 0 1 .355.851m.608-13.03c-6.416-2.154-7.84-2.377-10.738.518l-1.2 1.185a.503.503 0 0 0-.15.351v7.875l6.875-6.875a1 1 0 0 1 1.414 1.414L17.589 14h11.047a.501.501 0 0 0 .445-.27c1.76-3.346-2.179-4.515-1.993-9.909M7.854 20.904 13 15.758V8.845a.502.502 0 0 0-.851-.355L7.586 13A1.989 1.989 0 0 0 7 14.414v6.136a.502.502 0 0 0 .854.354"
    style="fill:#f7768e;fill-rule:nonzero"
    transform="matrix(.39213 0 0 .39213 1.335 1.92)"
  /></svg>
